<svg width="32" height="30" viewBox="0 0 32 30" fill="none" xmlns="http://www.w3.org/2000/svg">
<path d="M20.5 25.692C21.7795 26.0635 23.1052 26.2514 24.4375 26.25C26.5801 26.2531 28.6949 25.7646 30.619 24.822C30.6759 23.4776 30.2929 22.1512 29.5282 21.044C28.7634 19.9368 27.6586 19.109 26.3811 18.6863C25.1035 18.2635 23.723 18.2687 22.4487 18.7011C21.1745 19.1335 20.0759 19.9695 19.3195 21.0825M20.5 25.692V25.6875C20.5 24.018 20.071 22.4475 19.3195 21.0825M20.5 25.692V25.851C17.6132 27.5896 14.3059 28.5057 10.936 28.5C7.4395 28.5 4.168 27.5325 1.375 25.851L1.3735 25.6875C1.37235 23.5642 2.07792 21.5009 3.37897 19.8229C4.68003 18.1449 6.50256 16.9476 8.55923 16.4199C10.6159 15.8921 12.7897 16.0639 14.738 16.9081C16.6863 17.7524 18.2981 19.221 19.3195 21.0825M16 6.5625C16 7.90516 15.4666 9.19282 14.5172 10.1422C13.5678 11.0916 12.2802 11.625 10.9375 11.625C9.59484 11.625 8.30717 11.0916 7.35777 10.1422C6.40837 9.19282 5.875 7.90516 5.875 6.5625C5.875 5.21984 6.40837 3.93217 7.35777 2.98277C8.30717 2.03337 9.59484 1.5 10.9375 1.5C12.2802 1.5 13.5678 2.03337 14.5172 2.98277C15.4666 3.93217 16 5.21984 16 6.5625ZM28.375 9.9375C28.375 10.9818 27.9602 11.9833 27.2217 12.7217C26.4833 13.4602 25.4818 13.875 24.4375 13.875C23.3932 13.875 22.3917 13.4602 21.6533 12.7217C20.9148 11.9833 20.5 10.9818 20.5 9.9375C20.5 8.89321 20.9148 7.89169 21.6533 7.15327C22.3917 6.41484 23.3932 6 24.4375 6C25.4818 6 26.4833 6.41484 27.2217 7.15327C27.9602 7.89169 28.375 8.89321 28.375 9.9375Z" stroke="black" stroke-width="1.5" stroke-linecap="round" stroke-linejoin="round"/>
</svg>
