<svg width="32" height="32" viewBox="0 0 32 32" fill="none" xmlns="http://www.w3.org/2000/svg">
<path d="M30.625 8.12503C30.6251 9.06005 30.4309 9.9849 30.0548 10.8409C29.6787 11.697 29.1288 12.4655 28.44 13.0979C27.7512 13.7302 26.9386 14.2126 26.0536 14.5144C25.1686 14.8162 24.2306 14.9308 23.299 14.851C21.685 14.7145 19.903 14.9575 18.874 16.207L8.146 29.233C7.80759 29.6455 7.38655 29.9826 6.90999 30.2226C6.43344 30.4625 5.91191 30.6001 5.379 30.6263C4.84608 30.6525 4.31357 30.5669 3.81575 30.3749C3.31794 30.1829 2.86583 29.8888 2.48855 29.5115C2.11126 29.1342 1.81715 28.6821 1.62515 28.1843C1.43315 27.6865 1.3475 27.154 1.37373 26.621C1.39996 26.0881 1.53748 25.5666 1.77744 25.09C2.0174 24.6135 2.35449 24.1924 2.767 23.854L15.793 13.126C17.0425 12.097 17.2855 10.315 17.149 8.70103C17.0483 7.52829 17.256 6.3496 17.7515 5.28192C18.247 4.21425 19.0131 3.29471 19.9738 2.61455C20.9344 1.93439 22.0563 1.51726 23.2279 1.40455C24.3996 1.29184 25.5803 1.48747 26.653 1.97203L21.739 6.88603C21.9291 7.70817 22.3463 8.46041 22.9429 9.05709C23.5396 9.65378 24.2919 10.0709 25.114 10.261L30.028 5.34703C30.412 6.19453 30.625 7.13503 30.625 8.12503Z" stroke="black" stroke-width="1.5" stroke-linecap="round" stroke-linejoin="round"/>
</svg>
